<svg width="88" height="88" fill="none" xmlns="http://www.w3.org/2000/svg"><circle cx="44" cy="44" r="44" fill="url(#paint0_linear_42_47)"/><path d="M74.631 13.978a.742.742 0 00-.554-.572c-9.152-2.237-30.297 5.736-41.753 17.188a49.532 49.532 0 00-5.568 6.578c-3.532-.313-7.065-.052-10.076 1.26C8.184 42.173 5.71 51.929 5.022 56.126a1.506 1.506 0 001.648 1.75l13.643-1.505a30.14 30.14 0 00.186 3.078 3.05 3.05 0 00.89 1.875l5.283 5.27a3.061 3.061 0 001.875.891 30.25 30.25 0 003.06.186l-1.496 13.625a1.507 1.507 0 001.75 1.649c4.189-.672 13.963-3.146 17.68-11.64 1.312-3.012 1.58-6.527 1.278-10.043a49.646 49.646 0 006.595-5.569c11.492-11.434 19.42-32.108 17.217-41.714zM45.95 42.052a7.5 7.5 0 118.17 1.626 7.492 7.492 0 01-8.17-1.626z" fill="#1B567C"/><path d="M26.313 70.41c-.857.859-2.23 1.193-3.883 1.48-3.714.632-6.994-2.578-6.327-6.332.255-1.424 1.008-3.419 1.477-3.888a.684.684 0 00-.57-1.164 9.374 9.374 0 00-5.49 2.675C7.847 66.858 7.5 80.5 7.5 80.5s13.65-.347 17.323-4.023a9.326 9.326 0 002.677-5.494c.058-.653-.738-1.042-1.188-.572z" fill="#1B567C"/><defs><linearGradient id="paint0_linear_42_47" x1="44" y1="0" x2="44" y2="88" gradientUnits="userSpaceOnUse"><stop stop-color="#67A8D2" stop-opacity=".88"/><stop offset="1" stop-color="#67A8D2" stop-opacity="0"/></linearGradient></defs></svg>