<svg width="88" height="94" fill="none" xmlns="http://www.w3.org/2000/svg"><circle cx="44" cy="44" r="44" fill="url(#paint0_linear_42_145)"/><path d="M68 39.534c0 12.807-7.462 23.571-17.57 26.65a20.33 20.33 0 01-12.607-.243C28.097 62.571 21 52.023 21 39.534 21 24.327 31.521 12 44.5 12S68 24.327 68 39.534z" fill="#1B567C"/><path d="M44.5 67.068c-2.32 0-4.56-.394-6.677-1.127l-.834 2.532c-.161.718 0 2.161 1.933 2.196.658.012 1.671.018 2.81.02a818.147 818.147 0 006.37-.02c.805.088 2.495.018 2.811-.966.316-.984-.19-2.756-.483-3.519a20.301 20.301 0 01-5.93.884z" fill="#1B567C"/><path d="M41.733 70.688c.937 1.15 2.899 3.617 3.25 4.285.352.667.644 1.478.747 1.8.146.337.281 1.168-.351 1.8-.633.633-2.431 2.284-3.251 3.03-.351.41-1.098 1.327-1.274 1.713-.22.483-.263 1.406-.263 1.713 0 .308.175 1.537.57 2.24.396.702 1.494 2.59 2.504 3.6 1.01 1.01 2.372 2.504 3.47 3.03.492.317 1.348-.19 1.714-.482.454-.352 1.107-1.326.087-2.416-1.273-1.361-2.371-1.976-3.382-3.293-.808-1.054-1.244-1.874-1.361-2.152-.132-.307-.167-1.115.746-1.888.914-.773 2.167-1.786 2.68-2.196l1.186-1.58c.351-.513.949-1.89.527-3.294-.527-1.757-1.318-3.582-3.075-5.919-1.392.006-3.062.011-4.524.01z" fill="#1B567C"/><defs><linearGradient id="paint0_linear_42_145" x1="44" y1="0" x2="44" y2="88" gradientUnits="userSpaceOnUse"><stop stop-color="#67A8D2" stop-opacity=".88"/><stop offset="1" stop-color="#67A8D2" stop-opacity="0"/></linearGradient></defs></svg>